<svg width="512" height="512" viewBox="0 0 512 512" fill="none" xmlns="http://www.w3.org/2000/svg">
<rect width="512" height="512" rx="25" fill="#1A1A1A"/>
<path d="M208.589 70.136V63.118H236.429V70.136H208.589ZM243.367 70.136V63.118H271.207V70.136H243.367ZM278.144 70.136V63.118H305.984V70.136H278.144ZM312.921 70.136V63.118H340.761V70.136H312.921ZM174.566 142.004L193.184 89.92H200.898L182.28 142.004H174.566ZM243.367 145.136V138.118H271.207V145.136H243.367ZM278.144 145.136V138.118H305.984V145.136H278.144ZM367.071 142.004L348.453 89.92H356.167L374.785 142.004H367.071ZM139.789 217.004L158.407 164.92H166.121L147.503 217.004H139.789ZM209.343 217.004L227.961 164.92H235.675L217.057 217.004H209.343ZM278.144 220.136V213.118H305.984V220.136H278.144ZM318.141 165.732L325.275 162.194L331.017 173.446L325.913 175.94L318.141 165.732ZM392.742 217.004V164.92H400.05V217.004H392.742ZM114.523 292.004V239.92H121.831V292.004H114.523ZM184.078 292.004V239.92H191.386V292.004H184.078ZM249.979 265.962C249.979 263.139 250.288 260.433 250.907 257.842C251.564 255.213 252.434 252.777 253.517 250.534C254.638 248.291 255.933 246.281 257.403 244.502C258.872 242.685 260.419 241.157 262.043 239.92H270.627C268.809 241.157 267.089 242.607 265.465 244.27C263.841 245.894 262.41 247.692 261.173 249.664C259.974 251.636 259.007 253.743 258.273 255.986C257.538 258.229 257.171 260.568 257.171 263.004V268.92C257.171 271.356 257.538 273.695 258.273 275.938C259.007 278.181 259.974 280.288 261.173 282.26C262.41 284.232 263.841 286.03 265.465 287.654C267.089 289.317 268.809 290.767 270.627 292.004H262.043C260.419 290.805 258.872 289.297 257.403 287.48C255.933 285.663 254.638 283.633 253.517 281.39C252.434 279.147 251.564 276.731 250.907 274.14C250.288 271.511 249.979 268.785 249.979 265.962ZM278.144 295.136V288.118H305.984V295.136H278.144ZM323.187 292.004V239.92H330.495V292.004H323.187ZM392.742 292.004V239.92H400.05V292.004H392.742ZM158.407 367.004L139.789 314.92H147.503L166.121 367.004H158.407ZM227.961 367.004L209.343 314.92H217.057L235.675 367.004H227.961ZM243.367 370.136V363.118H271.207V370.136H243.367ZM278.144 370.136V363.118H305.984V370.136H278.144ZM322.607 348.908H333.627L325.681 367.758H319.301L322.607 348.908ZM347.699 370.136V363.118H375.539V370.136H347.699ZM392.742 367.004V314.92H400.05V367.004H392.742ZM193.184 442.004L174.566 389.92H182.28L200.898 442.004H193.184ZM208.589 445.136V438.118H236.429V445.136H208.589ZM243.367 445.136V438.118H271.207V445.136H243.367ZM278.144 445.136V438.118H305.984V445.136H278.144ZM312.921 445.136V438.118H340.761V445.136H312.921ZM348.453 442.004L367.071 389.92H374.785L356.167 442.004H348.453Z" fill="#E73D89"/>
<path d="M193.589 70.136V63.118H221.429V70.136H193.589ZM228.367 70.136V63.118H256.207V70.136H228.367ZM263.144 70.136V63.118H290.984V70.136H263.144ZM297.921 70.136V63.118H325.761V70.136H297.921ZM159.566 142.004L178.184 89.92H185.898L167.28 142.004H159.566ZM228.367 145.136V138.118H256.207V145.136H228.367ZM263.144 145.136V138.118H290.984V145.136H263.144ZM352.071 142.004L333.453 89.92H341.167L359.785 142.004H352.071ZM124.789 217.004L143.407 164.92H151.121L132.503 217.004H124.789ZM194.343 217.004L212.961 164.92H220.675L202.057 217.004H194.343ZM263.144 220.136V213.118H290.984V220.136H263.144ZM303.141 165.732L310.275 162.194L316.017 173.446L310.913 175.94L303.141 165.732ZM377.742 217.004V164.92H385.05V217.004H377.742ZM99.5233 292.004V239.92H106.831V292.004H99.5233ZM169.078 292.004V239.92H176.386V292.004H169.078ZM234.979 265.962C234.979 263.139 235.288 260.433 235.907 257.842C236.564 255.213 237.434 252.777 238.517 250.534C239.638 248.291 240.933 246.281 242.403 244.502C243.872 242.685 245.419 241.157 247.043 239.92H255.627C253.809 241.157 252.089 242.607 250.465 244.27C248.841 245.894 247.41 247.692 246.173 249.664C244.974 251.636 244.007 253.743 243.273 255.986C242.538 258.229 242.171 260.568 242.171 263.004V268.92C242.171 271.356 242.538 273.695 243.273 275.938C244.007 278.181 244.974 280.288 246.173 282.26C247.41 284.232 248.841 286.03 250.465 287.654C252.089 289.317 253.809 290.767 255.627 292.004H247.043C245.419 290.805 243.872 289.297 242.403 287.48C240.933 285.663 239.638 283.633 238.517 281.39C237.434 279.147 236.564 276.731 235.907 274.14C235.288 271.511 234.979 268.785 234.979 265.962ZM263.144 295.136V288.118H290.984V295.136H263.144ZM308.187 292.004V239.92H315.495V292.004H308.187ZM377.742 292.004V239.92H385.05V292.004H377.742ZM143.407 367.004L124.789 314.92H132.503L151.121 367.004H143.407ZM212.961 367.004L194.343 314.92H202.057L220.675 367.004H212.961ZM228.367 370.136V363.118H256.207V370.136H228.367ZM263.144 370.136V363.118H290.984V370.136H263.144ZM307.607 348.908H318.627L310.681 367.758H304.301L307.607 348.908ZM332.699 370.136V363.118H360.539V370.136H332.699ZM377.742 367.004V314.92H385.05V367.004H377.742ZM178.184 442.004L159.566 389.92H167.28L185.898 442.004H178.184ZM193.589 445.136V438.118H221.429V445.136H193.589ZM228.367 445.136V438.118H256.207V445.136H228.367ZM263.144 445.136V438.118H290.984V445.136H263.144ZM297.921 445.136V438.118H325.761V445.136H297.921ZM333.453 442.004L352.071 389.92H359.785L341.167 442.004H333.453Z" fill="#02DDDA"/>
<path d="M178.589 70.136V63.118H206.429V70.136H178.589ZM213.367 70.136V63.118H241.207V70.136H213.367ZM248.144 70.136V63.118H275.984V70.136H248.144ZM282.921 70.136V63.118H310.761V70.136H282.921ZM144.566 142.004L163.184 89.92H170.898L152.28 142.004H144.566ZM213.367 145.136V138.118H241.207V145.136H213.367ZM248.144 145.136V138.118H275.984V145.136H248.144ZM337.071 142.004L318.453 89.92H326.167L344.785 142.004H337.071ZM109.789 217.004L128.407 164.92H136.121L117.503 217.004H109.789ZM179.343 217.004L197.961 164.92H205.675L187.057 217.004H179.343ZM248.144 220.136V213.118H275.984V220.136H248.144ZM288.141 165.732L295.275 162.194L301.017 173.446L295.913 175.94L288.141 165.732ZM362.742 217.004V164.92H370.05V217.004H362.742ZM84.5233 292.004V239.92H91.8313V292.004H84.5233ZM154.078 292.004V239.92H161.386V292.004H154.078ZM219.979 265.962C219.979 263.139 220.288 260.433 220.907 257.842C221.564 255.213 222.434 252.777 223.517 250.534C224.638 248.291 225.933 246.281 227.403 244.502C228.872 242.685 230.419 241.157 232.043 239.92H240.627C238.809 241.157 237.089 242.607 235.465 244.27C233.841 245.894 232.41 247.692 231.173 249.664C229.974 251.636 229.007 253.743 228.273 255.986C227.538 258.229 227.171 260.568 227.171 263.004V268.92C227.171 271.356 227.538 273.695 228.273 275.938C229.007 278.181 229.974 280.288 231.173 282.26C232.41 284.232 233.841 286.03 235.465 287.654C237.089 289.317 238.809 290.767 240.627 292.004H232.043C230.419 290.805 228.872 289.297 227.403 287.48C225.933 285.663 224.638 283.633 223.517 281.39C222.434 279.147 221.564 276.731 220.907 274.14C220.288 271.511 219.979 268.785 219.979 265.962ZM248.144 295.136V288.118H275.984V295.136H248.144ZM293.187 292.004V239.92H300.495V292.004H293.187ZM362.742 292.004V239.92H370.05V292.004H362.742ZM128.407 367.004L109.789 314.92H117.503L136.121 367.004H128.407ZM197.961 367.004L179.343 314.92H187.057L205.675 367.004H197.961ZM213.367 370.136V363.118H241.207V370.136H213.367ZM248.144 370.136V363.118H275.984V370.136H248.144ZM292.607 348.908H303.627L295.681 367.758H289.301L292.607 348.908ZM317.699 370.136V363.118H345.539V370.136H317.699ZM362.742 367.004V314.92H370.05V367.004H362.742ZM163.184 442.004L144.566 389.92H152.28L170.898 442.004H163.184ZM178.589 445.136V438.118H206.429V445.136H178.589ZM213.367 445.136V438.118H241.207V445.136H213.367ZM248.144 445.136V438.118H275.984V445.136H248.144ZM282.921 445.136V438.118H310.761V445.136H282.921ZM318.453 442.004L337.071 389.92H344.785L326.167 442.004H318.453Z" fill="#80B8FF"/>
</svg>
